<?xml version="1.0" encoding="UTF-8"?>
<svg viewBox="0 0 750 448" xmlns="http://www.w3.org/2000/svg">
 <path d="m682.04 192.34c1.1419 0.71311 2.2371 1.1356 2.4339 0.93878 0.32777-0.32777-0.90107-17.737-3.5139-49.781-0.56058-6.875-1.2506-16.1-1.5334-20.5-1.2234-19.036-2.9535-40.963-3.9845-50.5-0.26757-2.475-0.74988-8.325-1.0718-13s-0.7331-10.075-0.91372-12-0.65044-8.7321-1.044-15.127l-0.71561-11.627 5.3622-0.04702c9.3587-0.08207 20.989-0.9931 21.688-1.6988 1.3542-1.3681-27.277 0.73138-30.193 2.214-2.7882 1.4176-3.9773 1.3754-8.1332-0.28836-1.6545-0.66238-1.7998-0.55243-0.84105 0.63654 0.63742 0.79048 1.4536 5.7122 1.8138 10.937s0.85762 11.975 1.1055 15 0.8903 11.931 1.4277 19.792 1.1841 15.285 1.4371 16.5 0.69733 6.0332 0.98731 10.708c0.92866 14.972 2.5773 39.128 3.5489 52 0.51895 6.875 1.4389 19.7 2.0444 28.5s1.2724 16.533 1.4821 17.184c0.29192 0.90683 1.1028 0.91216 3.4591 0.02274 2.4088-0.90922 3.5291-0.87991 5.1539 0.13481zm-84.158 240.91c-0.04536-11.846-0.65501-26.411-1.9359-46.25-0.49715-7.7-0.95176-20.039-1.0102-27.42s-0.26043-13.681-0.44878-14-0.63719-9.5803-0.99742-20.58c-0.66705-20.369-0.91985-26.726-2.1875-55-0.39453-8.8-0.75413-18.7-0.79912-22l-0.0818-6 5-0.50378c4.8752-0.49122 4.9165-0.52227 1.6523-1.2445-1.8412-0.40741-4.4287-0.46943-5.75-0.13781-1.6594 0.4165-2.4023 0.17996-2.4023-0.76492 0-2.8833 3.4374-3.4353 18-2.891 14.161 0.52936 14.508 0.59545 14.824 2.8298 0.2755 1.9423-0.02646 2.2039-2 1.7324-1.2785-0.30547-4.3495-0.14676-6.8245 0.35268l-4.5 0.90809 5 0.22805c2.75 0.12542 5.5286 0.16279 6.1746 0.08304s1.4083 0.23318 1.694 0.6954c0.51939 0.8404 2.034 23.105 3.1097 45.713 0.31404 6.6 0.76862 15.375 1.0102 19.5s0.69235 13.125 1.0018 20 0.76343 16.325 1.0089 21 0.67362 13 0.9514 18.5 0.73457 14.5 1.0151 20 0.74198 15.175 1.0255 21.5 0.79291 16.562 1.1321 22.75l0.61662 11.25h-34.24l-0.03925-10.25zm60.539 12.998c-1.7742-0.89281-2.0056-2.0364-2.0498-10.127-0.05001-9.1519-0.71579-22.631-2.451-49.621-0.51272-7.975-1.1815-19.45-1.4861-25.5s-0.76425-13.475-1.0214-16.5-0.69915-10.45-0.98228-16.5-0.72956-13.475-0.99207-16.5c-0.47785-5.5064-0.95548-13.344-2.0111-33-0.31014-5.775-0.81175-13.312-1.1147-16.75l-0.55081-6.25h-15.102l0.71777-3.75c0.39478-2.0625 0.70889-4.5075 0.69802-5.4333s0.6131-2.2085 1.3866-2.8505 1.7112-2.8095 2.0837-4.8167 1.3362-4.662 2.1415-5.8995c1.4567-2.2386 1.4362-2.25-4.0675-2.25-3.0424 0-5.6892-0.47249-5.8817-1.05-0.22297-0.66892-5.738-1.059-15.196-1.0747-15.557-0.02592-17.62-0.29884-17.62-2.331 0-0.80966-1.4788-1.2074-4.25-1.143-3.9216 0.09107-4.2744-0.11381-4.5664-2.6513-0.18326-1.5927-0.92774-2.75-1.769-2.75-1.0501 0-1.2788 0.69271-0.82517 2.5 0.38661 1.5404 0.20201 2.5-0.48095 2.5-0.60963 0-1.1084 0.62686-1.1084 1.393 0 1.3-2.0271 2.607-4.0432 2.607-0.48382 0-1.4255-1.9125-2.0926-4.25l-1.2129-4.25-0.58205 3c-0.43467 2.2404-1.2135 3.0847-3.0756 3.3347-3.2888 0.4414-3.9926 1.227-4.966 5.5431l-0.81696 3.6223h4.9299c4.7861 0 9.8595 2.1569 9.8595 4.1916 0 0.52888-1.4625 0.88153-3.25 0.78367s-5.5-0.05288-8.25 0.09997c-4.7307 0.26294-4.6266 0.30879 1.9328 0.85132 6.3846 0.52807 6.9866 0.77607 7.6134 3.1362 0.37435 1.4095 0.98764 12.66 1.3629 25s0.86725 25.362 1.0934 28.937c0.38363 6.0652 0.74749 16.307 2.0074 56.5 0.61546 19.635 1.2244 38.788 2.0667 65 0.35345 11 1.0621 20.519 1.5748 21.153 0.60302 0.74574 0.47606 1.3358-0.35958 1.6711-0.82147 0.3296-0.65463 0.54704 0.45826 0.59724 0.9625 0.04342 1.75-0.56573 1.75-1.3537 0-1.6061 3.4368-3.0335 4.991-2.0729 0.55492 0.34296 1.009 1.2362 1.009 1.985 0 0.93739-2.0229 1.578-6.4951 2.057-8.7496 0.937-33.211 0.15707-34.467-1.099-0.56377-0.56377-1.2253-9.1292-1.5038-19.472-1.0059-37.353-1.5239-57.988-2.0072-79.965-0.53082-24.136-1.6014-61.7-2.0378-71.5-0.14695-3.3-0.31699-8.5875-0.37787-11.75l-0.11068-5.75h-3.5c-2.6945 0-3.4832-0.40276-3.427-1.75 0.1443-3.4589 3.0746-18.568 4.4706-23.052 0.66227-2.1269 0.49794-2.2481-2.1634-1.596-1.5841 0.38813-3.1052 0.99946-3.3802 1.3585-0.75199 0.9818-6.9993 3.3733-7.5011 2.8715-0.24035-0.24035-0.54966-1.9156-0.68736-3.7227-0.23735-3.1148-0.32997-3.1876-1.7809-1.399-1.6256 2.0039-5.587 3.9989-4.5235 2.2781 0.33602-0.5437 0.1344-0.98855-0.44806-0.98855s-1.059 0.675-1.059 1.5c0 2.2239-2.6833 1.8191-3.2887-0.49612-0.2871-1.0979-0.27946-3.8044 0.01698-6.0145 0.42704-3.1838 1.0371-4.1434 2.9373-4.6203 2.243-0.56297 2.2829-0.68853 0.61639-1.9394-1.514-1.1364-1.9698-1.0902-3.0319 0.30754-0.6875 0.90475-1.25 2.6574-1.25 3.8948 0 2.7033-1.7465 4.0214-3.2871 2.4808-1.3845-1.3845-4.7129-1.4642-4.7129-0.11287 0 0.55-0.7875 1.0069-1.75 1.0153-1.495 0.01308-1.5314 0.1561-0.25 0.98135 1.0513 0.67705 1.8321 0.5229 2.6102-0.51532 1.2614-1.683 3.3898-1.9852 3.3898-0.48134 0 0.55 0.675 1 1.5 1 1.0833 0 1.5 1.1111 1.5 4s-0.41667 4-1.5 4c-0.825 0-1.5-0.45-1.5-1s-0.5625-0.8875-1.25-0.75-1.25-0.425-1.25-1.25-1.271-2.135-2.8245-2.911c-1.9726-0.98539-2.6795-1.9657-2.3436-3.25 0.36078-1.3796-0.05777-1.8193-1.6755-1.76-1.186 0.04342-1.5939 0.30592-0.90638 0.58333s1.25 2.0419 1.25 3.921c0 2.75-0.39024 3.4167-2 3.4167-1.1 0-2 0.40122-2 0.89159 0 1.1787-4.4423 2.2597-6.322 1.5383-0.8145-0.31255-1.7081-1.4372-1.9858-2.4991-0.59821-2.2876-3.2338-2.5677-4.0538-0.43083-0.65936 1.7183-4.6384 2.0621-4.6384 0.40081 0-0.60455 2.3052-3.3564 5.1227-6.1152 3.9283-3.8465 4.8026-5.2187 3.75-5.8855-1.1318-0.71696-1.1095-0.87489 0.12733-0.90014 1.3333-0.02722 1.3333-0.13833 0-1-1.213-0.78387-1.0694-0.9723 0.75-0.98469 1.8025-0.01226 2.25-0.58114 2.25-2.8603 0-3.0742-2.3051-5.7245-5.5-6.3235-1.4523-0.27228-2-1.1666-2-3.2657 0-1.5899-0.50351-3.0605-1.1189-3.2679-0.69334-0.2337-0.94594 0.52771-0.66412 2.0019 0.65265 3.4142-8.0275 11.09-11.543 10.208-2.227-0.55895-2.289-0.47983-0.79461 1.0146 0.89144 0.89144 1.6208 2.2155 1.6208 2.9424s0.675 1.5806 1.5 1.8972 1.5 1.2166 1.5 2c0 1.6412-2.1096 2.6384-5.5818 2.6384-1.8177 0-2.4378-0.55872-2.4972-2.25-0.05159-1.4705-0.27855-1.7424-0.6551-0.7847-0.31688 0.80591-1.5188 2.3027-2.671 3.3262s-1.4629 1.5321-0.69039 1.1302c0.93186-0.4848 1.161-0.33669 0.6809 0.44012-0.39798 0.64395-1.0744 0.95404-1.5031 0.68909s-1.7288 0.40271-2.8891 1.4837c-2.4154 2.2503-4.2713 2.4874-5.9933 0.76542-0.93333-0.93333-1.2-0.71111-1.2 1 0 1.21 0.47045 2.2 1.0454 2.2s2.206 1.1606 3.6245 2.579c2.2136 2.2136 2.4228 2.9221 1.476 5-1.0423 2.2876-4.1459 3.4386-4.1459 1.5376 0-0.48585-0.9-1.1187-2-1.4064-2.0104-0.52574-2.8687-3.7102-1-3.7102 0.55 0 1-0.45 1-1s-0.675-1-1.5-1c-0.87903 0-1.5138 0.93145-1.5333 2.25-0.05521 3.7339-6.3836 9.75-10.256 9.75-1.8667 0-8.192-4.2456-10.429-7-0.67-0.825-1.2325-2.2875-1.25-3.25-0.02559-1.4084-0.95895-1.7611-4.7818-1.8068-2.6125-0.03123-7.3329-0.14373-10.49-0.25-7.4665-0.25136-8.433 1.6932-1.6994 3.419 4.4472 1.1398 4.9391 1.5458 4.9391 4.0768 0 1.832 0.52242 2.811 1.5 2.811 0.93026 0 1.5-0.94233 1.5-2.481 0-1.8158 0.67376-2.65 2.513-3.1117 3.1129-0.78129 5.2694 0.88888 5.6776 4.3974 0.22459 1.93 1.1314 2.9359 3.3094 3.671 4.3647 1.4732 5.6582 3.0456 4.9212 5.9824-0.5732 2.2838-1.1286 2.5419-5.4705 2.5419-2.6579 0-5.1107-0.45-5.4506-1-2.2967-3.7162-6.8045 3.5395-6.4066 10.312 0.55329 9.4181 1.7747 8.688-14.536 8.688h-14.442l-0.3075 4.25c-0.28071 3.8797-0.56458 4.2793-3.2582 4.5858-3.7069 0.42184-5.5493-1.8888-5.5493-6.9595 0-2.8632 0.46947-3.8905 2-4.3763 2.3433-0.74373 2.5382-1.8084 0.62214-3.3986-1.0824-0.89835-1.4909-0.71128-1.9051 0.87251-0.77929 2.98-3.2749 3.4683-5.6398 1.1034-1.1425-1.1425-2.0773-2.4898-2.0773-2.994s-0.50634-1.0854-1.1252-1.2917c-1.3205-0.44017-0.22328-6.7916 1.1733-6.7916 0.48904 0 0.63458-0.66344 0.32342-1.4743-0.4985-1.2991-0.74098-1.2991-2.04 0-1.9084 1.9084-4.3314 1.894-4.3314-0.0257 0-0.825 0.47656-1.5 1.059-1.5s0.77409 0.5625 0.42584 1.25-0.0373 0.54711 0.69098-0.31197 2.0492-1.8335 2.9354-2.1654 1.8566-1.5415 2.1564-2.688c0.42737-1.6343 0.0793-2.0879-1.6112-2.0999-1.5807-0.01123-1.7964-0.24344-0.80799-0.86983 0.74162-0.46998 1.1833-1.7006 0.98145-2.7347-0.27132-1.3902-1.0716-1.7973-3.0707-1.5622-2.6736 0.31438-2.7018 0.25505-2.5252-5.3135 0.10393-3.277-0.29109-5.9217-0.94485-6.3258-0.6179-0.38188-1.025-2.1157-0.90478-3.853l0.21868-3.1586-2.4364 1.9165c-1.34 1.054-3.7782 1.9165-5.4181 1.9165-2.6111 0-2.9245 0.29936-2.5213 2.4087 0.35744 1.8698 0.10388 2.2872-1.1334 1.8655-1.0644-0.36276-0.92945-0.01078 0.40612 1.0595 1.7907 1.435 1.8168 1.6061 0.25 1.6345-1.1629 0.02113-1.7235 0.78669-1.671 2.2818 0.04342 1.2375 0.30592 1.6875 0.58333 1 0.71137-1.763 2.0935-1.5555 4.4859 0.67341 2.5671 2.3916 1.6548 4.0766-2.2072 4.0766-2.2136 0-2.941 0.4658-2.941 1.8834 0 1.0424 0.89308 2.1169 2 2.4064 1.1 0.28766 2 0.11514 2-0.38337 0-1.5024 2.7432-1.018 3.3616 0.59362 0.36982 0.96375-0.0388 1.5251-1.143 1.5703-1.4337 0.05863-1.387 0.21278 0.28138 0.92971 1.5986 0.68693 1.6651 0.87354 0.33156 0.92971-1.9764 0.08326-6.257 6.5729-5.3275 8.0768 0.35454 0.57366 0.04867 0.91936-0.67971 0.76824-1.0226-0.21218-1.4382 2.5729-1.8243 12.225l-0.5 12.5-5.6474 0.89636c-7.8964 1.2533-8.8526 0.68539-8.8526-5.258 0-5.3145 0.8019-6.1384 5.9748-6.1384 2.9555 0 4.9891-2.505 2.1616-2.6626-0.90002-0.05015-13.336-0.36986-27.635-0.71046-14.893-0.35475-26.134-1.0241-26.315-1.5669-0.17374-0.52121-0.95802-0.70124-1.7428-0.40007s-1.7043-0.17512-2.0432-1.0584c-0.92091-2.3998 0.42744-6.6015 2.1185-6.6015 1.7869 0 2.0716-6.0093 0.36564-7.7153-0.82041-0.82041-0.78241-3.4513 0.14375-9.95 0.85362-5.9898 1.4945-8.1907 1.9902-6.8347 0.40212 1.1 0.49291 2.407 0.20175 2.9045s-0.05209 0.60953 0.53125 0.249 0.80699-1.6254 0.49699-2.8109c-0.38615-1.4766-0.19913-1.9301 0.59388-1.44 0.7965 0.49226 1.1575-0.431 1.1575-2.9603 0-3.1604 0.27522-3.6037 1.9632-3.1623 1.0798 0.28237 2.4849-0.11514 3.1224-0.88336 0.97923-1.1799-0.39866-1.3968-8.8748-1.3968-9.0171 0-10-0.17735-9.699-1.75 0.18426-0.9625 0.40107-2.875 0.4818-4.25 0.11725-1.9967 0.28602-2.1484 0.83829-0.75372 0.64169 1.6205 0.77921 1.6058 1.9092-0.20364 1.682-2.6933 0.17299-3.2734-4.3848-1.6856-2.1211 0.73892-4.5315 1.1516-5.3565 0.91708-1.2473-0.35458-1.2649-0.26213-0.10428 0.54879 0.76764 0.53637 1.1298 1.6681 0.80484 2.515-0.42419 1.1054 0.16941 1.6558 2.1043 1.9511 1.4823 0.22621 0.44516 0.47183-2.3048 0.54582s-4.55-0.19609-4-0.60017 1.0945-1.6755 1.21-2.8254c0.17175-1.71-0.5964-2.2752-4.2189-3.1042-2.4359-0.5574-4.2105-0.66019-3.9437-0.22841 0.89532 1.4486-1.4127 1.983-2.6846 0.62155-1.7778-1.9032-5.8629-0.91498-5.8629 1.4183 0 1.2514-0.75503 1.9232-2.25 2.0019-3.7909 0.19963-5.1676-0.21543-7.3144-2.2051-2.4868-2.3047-3.784-2.4034-5.4356-0.41335-1.6452 1.9824 0.32158 4.5 3.5155 4.5 1.2488 0 2.5296 0.675 2.8462 1.5 0.41585 1.0837-0.10953 1.5-1.893 1.5-2.2481 0-2.9856 0.98163-2.5424 3.3839 0.28799 1.5611-5.7934-0.25114-7.895-2.3527-1.1172-1.1172-2.5938-1.9957-3.2812-1.9523-1 0.06316-1 0.17982 0 0.58333 1.7584 0.70953 1.5616 3.3377-0.25 3.3377-0.825 0-1.5-0.68357-1.5-1.519 0-1.121-0.65514-1.3546-2.5-0.89159-2.7674 0.69458-2.9079 0.31958-1.5948-4.2589l0.90522-3.1563-5.4066-0.33705c-4.2845-0.26711-5.4095-0.02575-5.4205 1.1629-0.00837 0.90078-0.30744 1.0919-0.74863 0.4784-0.40408-0.56188-2.1972-1.1583-3.9847-1.3254-3.0711-0.28704-3.25-0.12221-3.25 2.9941 0 3.27 0.01317 3.2791 1.5567 1.0754 0.85619-1.2224 2.1364-2.2225 2.845-2.2225 1.4761 0 4.5983 3.164 4.5983 4.6598 0 1.1777-3.3732 2.9405-7.2234 3.7748-2.1844 0.47337-2.6054 0.28278-2.1273-0.9631 0.32782-0.85429 0.20334-1.4816-0.27664-1.3939s-2.7327 0.10602-5.006 0.04089c-3.3507-0.096-4.2702-0.54446-4.856-2.3684-0.60553-1.8854-0.79777-1.9695-1.1864-0.51861-0.25506 0.95226 0.24264 2.7399 1.106 3.9725s1.5697 3.18 1.5697 4.3275 0.66069 2.9599 1.4682 4.0275 1.4825 2.976 1.5 4.2408 0.6526 3.5148 1.4114 5 1.6945 4.1628 2.0795 5.9503l0.69989 3.25h-17.159l-0.08124 3.25c-0.04468 1.7875-0.20193 4.375-0.34943 5.75-0.77431 7.2181-1.6258 16.166-2.046 21.5-0.61414 7.7958-1.297 14.902-2.4984 26-0.53587 4.95-1.2434 12.6-1.5723 17-0.89081 11.917-1.348 17.502-1.8419 22.5-0.24459 2.475-0.7424 7.875-1.1062 12s-0.80384 9.075-0.97775 11-0.81076 7.55-1.4152 12.5-1.3487 13.275-1.6538 18.5c-1.194 20.446-1.407 23.614-1.8032 26.828-0.22561 1.8303-0.80264 3.7099-1.2823 4.1769-1.1747 1.1436-39.947 1.456-60.101 0.48428-17.713-0.85403-17.682-0.84111-16.733-6.9891 0.25451-1.65 0.66205-5.7083 0.90563-9.0184s0.89054-8.0109 1.4377-10.446 0.82052-4.7099 0.60744-5.0546 0.01002-3.519 0.49579-7.0538 1.1008-8.452 1.3666-10.927 0.74621-6.75 1.0674-9.5 0.7712-7.025 1-9.5c0.22879-2.475 0.67879-6.75 1-9.5s0.78088-7.025 1.0215-9.5 1.6217-14.625 3.069-27 3.0082-25.875 3.4687-30 1.5857-13.73 2.5006-21.345 1.4207-14.477 1.1242-15.25c-0.40137-1.046-2.5997-1.405-8.6019-1.405-6.8026 0-8.1487-0.27351-8.6127-1.75-1.1709-3.7257-2.4805-6.4901-2.8836-6.087-0.2318 0.2318-0.61679 2.4274-0.85554 4.8792s-0.94245 8.0578-1.5638 12.458-1.3521 10.025-1.6239 12.5-0.75778 6.75-1.08 9.5-0.58938 5.675-0.59378 6.5-0.37642 3.3-0.82671 5.5-1.0919 6.7-1.4259 10-0.79136 6.675-1.0165 7.5-0.65655 4.7201-0.95874 8.6558-0.76858 7.7607-1.0364 8.5-0.69157 3.3692-0.94157 5.8442c-0.25001 2.475-0.93196 8.1-1.5154 12.5-1.4758 11.128-2.8328 22.867-3.526 30.5-0.12487 1.375-0.32316 2.725-0.44066 3-0.30745 0.7196-1.2897 9.2236-1.2705 11 0.0089 0.825-0.60577 4.875-1.3659 9s-1.6112 10.572-1.8911 14.326c-0.70297 9.4267-1.5493 13.411-3.1267 14.72-1.6549 1.3734-71.236 1.5623-72.602 0.19705-0.52665-0.52665-0.25375-3.6599 0.6631-7.6133 0.85695-3.6951 1.6064-8.3859 1.6655-10.424s0.34192-4.1172 0.62856-4.6202 0.632-2.078 0.76748-3.5c0.90699-9.5198 1.5334-14.44 1.9175-15.062 0.24369-0.39429 0.70034-3.555 1.0148-7.0239s0.74642-6.5897 0.95996-6.9352 0.65264-3.3139 0.9758-6.5965 0.97983-7.6333 1.4593-9.6682 0.64363-3.928 0.36481-4.2069-0.17264-1.3138 0.23595-2.3001c0.74687-1.8028 0.94562-3.015 1.8516-11.293 0.49644-4.5361 1.8471-13.328 3.7847-24.636 0.57826-3.3748 1.1869-7.4248 1.3525-9s0.85306-6.689 1.5277-11.364 1.3398-9.625 1.4781-11c0.50844-5.055 2.6762-19.46 3.0097-20 0.31586-0.51106 2.3368-14.13 2.9678-20 0.90628-8.4302 1.8097-11.001 3.91-11.127 1.1672-0.06997 6.8472-0.47043 12.622-0.8899l10.5-0.76268-13.25 0.30614c-10.33 0.23869-13.25 0.02106-13.25-0.98765 0-0.71159 0.59991-1.7917 1.3331-2.4002 1.309-1.0863 12.04-2.1065 24.449-2.3244 3.4554-0.06066 6.5448-0.53469 6.8654-1.0534s0.58288-3.1239 0.58288-5.7892c0-3.2057 0.4687-5.0259 1.3846-5.3774 0.76153-0.29223 1.3846-1.1204 1.3846-1.8405s0.95086-2.1233 2.113-3.1184c1.4903-1.2761 1.8002-2.122 1.0515-2.8708-0.66369-0.6637-0.83373-3.5009-0.45371-7.5705 0.44298-4.7437 0.29884-6.318-0.53144-5.8049-2.0557 1.2705-27.122 0.90338-28.717-0.42058-1.5989-1.3269-2.0083-4.9686-0.55864-4.9686 0.49692 0 1.1111-2.1375 1.3648-4.75 0.45494-4.6845 3.3128-25.24 6.2216-44.75 0.82002-5.5 1.972-13.375 2.5599-17.5s1.9075-12.45 2.9324-18.5 2.5953-16.625 3.4897-23.5 2.3043-16.201 3.1329-20.724 1.7002-10.526 1.9367-13.34 0.85556-6.7629 1.3756-8.7757 1.2492-6.6536 1.6204-10.313l0.67482-6.653 17.644-0.40138c9.7041-0.22076 18.014-0.21755 18.467 0.00712s6.7746 0.34105 14.049 0.25861c13.772-0.15607 16.628 0.26803 16.628 2.4691 0 1.7882-11.16 2.9152-20.493 2.0695-4.8374-0.43836-8.1526-0.25992-9.8916 0.5324-3.2228 1.4684-7.5998-0.16763-7.646-2.8578-0.02886-1.6814-0.08222-1.6825-1.0497-0.02143-0.86946 1.4928-2.5798 1.75-11.636 1.75-5.8393 0-10.297 0.31965-9.9066 0.71035s5.3032 0.72819 10.917 0.75l10.206 0.03965-0.11749 4c-0.12797 4.3566-0.22899 5.1529-3.3618 26.5-1.1704 7.975-2.353 16.3-2.6282 18.5-0.64526 5.16-0.78617 6.1658-3.3623 24-1.1917 8.25-2.3145 16.125-2.4951 17.5s-1.2867 9.25-2.4581 17.5c-2.0243 14.258-4.6096 32.905-5.615 40.5-0.25482 1.925-0.62206 4.625-0.81608 6-1.0376 7.3531-1.5514 13.349-1.0499 12.25 0.75931-1.6637 8.3938-1.6637 8.4342 0 0.04467 1.8363 2.117-2.0526 2.4434-4.5853 0.15346-1.1906 0.82387-5.9897 1.4898-10.665s1.3968-10.075 1.6242-12 0.58994-4.625 0.80576-6c0.60974-3.8847 6.718-51.01 7.1938-55.5 0.23312-2.2 0.69061-5.575 1.0166-7.5 0.70426-4.1581 0.38918-1.9432 4.979-35 2.0237-14.575 3.8933-28.445 4.1547-30.822 0.45533-4.1416 2.6544-6.5867 4.1132-4.5735 0.357 0.49264 6.0491 0.89572 12.649 0.89572h12l-0.23608 2.5c-0.12984 1.375-0.26238 4.3-0.29453 6.5s-0.48722 5.6186-1.0113 7.597c-0.95846 3.6183-1.8462 9.9903-2.4247 17.403-0.17167 2.2-1.0201 8.95-1.8853 15s-1.8088 13.475-2.0967 16.5-0.79439 7.525-1.1255 10c-0.33111 2.475-0.61079 6.3-0.62151 8.5s-0.39508 4.2355-0.85414 4.5233-0.9134 2.7628-1.0096 5.5-0.54077 6.5517-0.98784 8.4767-1.0577 6.425-1.3569 10-0.8254 8.525-1.1692 11-0.72324 5.4-0.84313 6.5-0.52441 4.025-0.89893 6.5c-0.68785 4.5457-1.7956 15.234-1.8655 18-0.03421 1.3538-0.34315 3.0134-2.2804 12.25l-0.57676 2.75h-13.422c-7.8693 0-13.678-0.4137-14.04-1-1.1295-1.8276-2.1529-1.0377-3.2386 2.5-1.0118 3.2967-0.9406 3.5 1.2252 3.5 1.2647 0 2.5584-0.675 2.875-1.5 0.75268-1.9615 3.0854-1.9101 5.108 0.1125 1.2952 1.2952 3.4245 1.5585 10.821 1.338 5.0649-0.15096 11.121-0.30217 13.459-0.33603 2.3803-0.03447 4.25-0.54425 4.25-1.1588 0-0.74755 2.7843-0.95107 8.7368-0.63864 7.9107 0.4152 8.6117 0.30783 7.4139-1.1355-1.2703-1.5306-0.73638-4.1616 0.66835-3.2934 0.37449 0.23145 0.70759-0.54871 0.74022-1.7337 0.15495-5.6277 1.5827-21.285 2.8866-31.655 0.7953-6.325 1.6627-13.75 1.9276-16.5s0.93841-8.15 1.4968-12 1.7192-13.75 2.5796-22c3.6329-34.835 8.1769-73.772 9.1439-78.355 0.36666-1.7376 1.0017-2.2228 2.4228-1.8512 1.0592 0.27699 4.3013-0.09539 7.2046-0.82751l5.2788-1.3311-7.25 0.5615c-6.8246 0.52855-7.25 0.44123-7.25-1.4883 0-2.2896 0.10515-2.3218 15.324-4.7004 5.403-0.84446 10.228-1.2856 10.722-0.98026s2.0161-0.17736 3.3825-1.0726 2.8425-1.4064 3.2803-1.1358 6.8701-0.30758 14.294-1.2848c13.917-1.832 15.998-1.7656 15.998 0.51095 0 0.83092-1.7863 1.576-4.75 1.9812-2.6125 0.3572-6.325 1.0573-8.25 1.5557s-5.496 0.90875-7.9356 0.91182c-2.9987 0.00377-5.1043 0.63145-6.5 1.9376-1.8253 1.7082-2.5558 1.8004-6.3054 0.79583-3.2252-0.86408-5.0384-0.8478-7.571 0.06798-1.8315 0.66229-4.1981 1.2178-5.2591 1.2346-1.6808 0.0265-1.722 0.1514-0.32018 0.97069 1.0093 0.58989 2.8701 0.57856 4.9934-0.03041 1.8615-0.53388 3.7832-0.97068 4.2704-0.97068 1.0552 0 0.73722 3.6278-4.426 50.5-2.1811 19.8-5.9173 54.606-8.3028 77.346-3.222 30.715-4.698 41.575-5.7405 42.235-0.77181 0.48865-3.6533 0.92697-6.4033 0.97405-11.209 0.19189-10.656 3.3942 0.75 4.3418l7.75 0.64392v-3.9386c0-6.0687 0.72532-7.1021 4.9845-7.1021 3.3407 0 6.7565-1.9256 5.5522-3.13-0.24526-0.24527-0.03941-3.3539 0.45746-6.908s1.3796-11.862 1.9616-18.462 1.4827-16.05 2.0015-21 1.2016-11.925 1.5173-15.5c0.5905-6.6878 2.3254-23.586 5.0305-49 0.84889-7.975 1.9678-18.55 2.4864-23.5 2.124-20.273 3.1938-28.991 3.6476-29.725 0.91059-1.4734 3.3611-0.76892 3.3914 0.97494 0.02896 1.6667 0.07894 1.6667 1.0497 0 1.3108-2.2505 2.9108-2.2505 2.9517 0 0.03029 1.6667 0.09507 1.6667 1.3602 0 1.5196-2.0019 3.608-2.3254 3.608-0.55887 0 0.65512 0.6263 0.3346 1.3918-0.71226 1.1338-1.5506 1.6682-1.674 2.8832-0.6656 1.2085 1.0029 1.6075 0.93526 2.1033-0.3567 0.39819-1.0377 1.2826-1.3816 2.5326-0.98485 1.0564 0.3353 2.2102 0.14133 2.5639-0.43105 1.6914-2.7368 2.5246-0.51594 2.142 5.7093-0.53308 8.6725-2.4031 29.34-3.642 40.25-0.53083 4.675-1.4217 13.9-1.9797 20.5s-1.2104 14.025-1.4496 16.5-0.69359 7.65-1.0096 11.5-0.99516 10.6-1.5093 15-1.2258 11.375-1.5816 15.5-0.79458 9.075-0.97525 11-0.86606 10.241-1.5231 18.48c-0.90561 11.356-1.5694 15.254-2.7438 16.113-0.85203 0.62302-6.9454 1.6289-13.541 2.2354-10.268 0.94409-12.148 0.89178-13.077-0.36391-0.84092-1.1364-1.1131-0.45343-1.2094 3.0343-0.06831 2.4754 0.26919 4.5008 0.75 4.5008s0.8742-0.45 0.8742-1 0.675-1 1.5-1 1.5 0.45 1.5 1c0 0.61333 4.8333 1 12.5 1 7.3171 0 12.5-0.39794 12.5-0.95974 0-0.52786 1.2375-0.95236 2.75-0.94333 4.9396 0.0295 7.7357-0.57452 8.5497-1.8469 0.43983-0.6875 1.3655-1.25 2.057-1.25s1.6958-1.2375 2.2319-2.75c0.82181-2.3188 0.6561-2.9161-1.057-3.8093-1.4764-0.76982-1.966-1.903-1.7917-4.1469 0.15407-1.9836-0.29289-3.292-1.25-3.6593-0.81941-0.31444-1.4898-1.7108-1.4898-3.1031 0-2.2449 0.42442-2.54 3.75-2.6079 2.0625-0.04208 4.5375-0.22726 5.5-0.41152s1.75 0.07518 1.75 0.57651 1.1164 0.91152 2.481 0.91152c1.8124 0 2.65 0.67373 3.1084 2.5 0.61555 2.4526 0.81219 2.5 10.366 2.5 9.1076 0 9.8099 0.14583 10.836 2.25l1.0976 2.25 0.67182-2.25c0.65115-2.1808 1.0647-2.25 13.439-2.25 11.926 0 12.801 0.13175 13.29 2 0.67854 2.5947 2.7102 2.5947 2.7102 0 0-1.8974 0.66667-2 13-2s13 0.10256 13 2c0 1.1 0.45 2 1 2s1 0.67191 1 1.4931 0.78116 3.2962 1.7359 5.5l1.7359 4.0069 6.5141 0.09639c3.5828 0.05301 10.973 0.2666 16.422 0.47464 8.491 0.32416 10.096 0.13158 11.218-1.3464 1.7516-2.3062 1.7028-4.7065-0.12649-6.2246-2.0581-1.7081-1.9304-9.4627 0.21561-13.096 1.077-1.8232 2.5449-2.9043 3.9433-2.9043 2.6309 0 5.3411 3.4654 5.3411 6.8295 0 1.7635 0.41194 2.2264 1.5818 1.7775 0.86998-0.33385 1.995-0.60699 2.5-0.60699s0.91821-2.25 0.91821-5c0-3.5654-0.39284-5-1.3692-5-1.8436 0-2.8595-6.6611-1.3777-9.0337 0.63625-1.0188 2.1678-2.1061 3.4034-2.4162 2.2008-0.55238 9.3434 2.1391 9.3434 3.5208 0 1.2378-2.8334 6.2081-3.923 6.8815-0.58313 0.36039-1.1078 4.3151-1.174 8.8496-0.06587 4.5089-0.53549 8.198-1.0436 8.198s-1.307 1.0125-1.7754 2.25c-0.63739 1.6841-0.37219 2.7052 1.0544 4.0596 2.3803 2.26 1.5575 3.759-1.9541 3.56-1.4763-0.08367-3.1343-0.03527-3.6843 0.10754-4.5173 1.173-6.2875-2.3471-2-3.9772 1.375-0.52277 2.5-1.6366 2.5-2.4752 0-2.2808-1.1978-1.745-4.2018 1.8794l-2.7017 3.2598 2.2017 3.1821c1.211 1.7502 3.3268 3.4628 4.7018 3.8059s3.0567 1.062 3.737 1.5975c1.8011 1.4178 6.2439 0.01074 6.3737-2.0186 0.06088-0.95202 0.0293-2.7387-0.07018-3.9704-0.12534-1.5518 0.635-2.6112 2.476-3.45 2.1397-0.97493 2.3878-1.4149 1.2743-2.2605-1.6626-1.2626-4.7908-5.6848-4.7908-6.7725 0-0.42762 0.675-0.77749 1.5-0.77749s1.5-0.45 1.5-1c0-1.1974 3.9731-1.3037 5.7839-0.15474 0.70776 0.44909 0.9963 1.564 0.64301 2.4847-0.49766 1.2969-0.05833 1.67 1.9661 1.67 1.9139 0 2.607 0.51603 2.607 1.941 0 1.0675-0.45 2.2191-1 2.559s-1 1.5479-1 2.6844c0 1.963 0.42942 2.0438 8.5829 1.6159 8.1297-0.4267 9.5018-0.94343 10.651-4.0111 0.14644-0.39095 2.1977-0.9517 4.5584-1.2461 4.7243-0.58921 10.208-3.0435 10.208-4.5688 0-0.53588 1.1742-0.97432 2.6094-0.97432 2.3809 0 2.5652 0.28461 2.1043 3.25-0.27782 1.7875-0.71247 4.15-0.96588 5.25s-0.26733 1.4375-0.03094 0.75c0.68601-1.9952 3.9082-1.4473 5.4889 0.93331 1.1271 1.6976 1.6336 1.8857 2.2765 0.84549 0.5527-0.89429 0.44406-1.1013-0.32769-0.62429-0.63498 0.39244-1.1545 0.23697-1.1545-0.34549s0.675-1.059 1.5-1.059 1.5 0.65159 1.5 1.448c0 1.1896 0.5615 1.2522 3.1467 0.35105 2.3193-0.80853 3.6304-0.79485 4.9864 0.05202 2.2621 1.4127 7.8669 1.5188 7.8669 0.14895 0-0.55 0.675-1 1.5-1s1.5 0.45 1.5 1c0 0.58333 3.3333 1 8 1 7.0667 0 8-0.21212 8-1.8182 0-2.3685 15.813-18.182 18.182-18.182 1.0214 0 1.8682-0.76687 1.9324-1.75 0.06281-0.9625 4.0737-5.4625 8.9132-10 8.8828-8.3286 12.973-10.299 12.973-6.25 0 1.1-0.3375 2.0009-0.75 2.002s-0.8505 1.4291-0.97334 3.1733-0.68534 3.6334-1.25 4.198-1.0267 2.2601-1.0267 3.7676-0.39899 2.9876-0.88664 3.289c-0.71357 0.44101-2.1444 5.3705-2.5358 8.7367-0.04264 0.36666-0.41503 1.0042-0.82753 1.4167-1.1017 1.1017-0.91404 4.4167 0.25 4.4167 0.55 0 1.0562-0.45 1.125-1s0.2375-1.45 0.375-2 0.30625-1.45 0.375-2 0.9125-0.96447 1.875-0.92105c1.0454 0.04716 1.2467 0.28201 0.5 0.58333-0.6875 0.27741-1.2431 1.2544-1.2347 2.171 0.01325 1.4415 0.14628 1.464 0.98469 0.16667 0.86167-1.3333 0.96937-1.3333 0.96937 0 0 0.825-0.43621 2.175-0.96937 3-0.79817 1.2351-0.97208 1.2498-0.98469 0.08333-0.00842-0.77916-0.2586-1.1734-0.55595-0.87603-1.092 1.092 3.7571 7.7927 5.6394 7.7927 1.2706 0 1.9397 0.74631 2.0172 2.25 0.08729 1.6932 0.22918 1.8169 0.57333 0.5 0.56306-2.1546 3.3107-2.3329 3.3107-0.21482 0 1.2079 0.41234 1.3145 1.9343 0.5 2.6555-1.4212 6.7918-1.3012 7.4035 0.21482 0.27741 0.6875 0.53991 0.2375 0.58333-1 0.07742-2.2064 2.5897-3.1934 3.2456-1.2751 0.42501 1.243 8.3333 1.5981 12.583 0.5651 2.7281-0.66312 3.25-0.50938 3.25 0.95747 0 1.2822 0.33279 1.4724 1.25 0.71445 1.5256-1.2607 30.75-1.3396 30.75-0.08303 0 1.7454 2.8828 0.81563 3.5-1.1289 0.61962-1.9522 3.5-2.8712 3.5-1.1166 0 0.48589 1.1628 1.1057 2.584 1.3774l2.584 0.49395-0.6645-5.7254c-0.53496-4.6092-0.34245-6.0474 0.98747-7.3774 1.9441-1.9441 6.1492-2.1931 6.7889-0.40198 0.24554 0.6875 0.78274 0.9378 1.1938 0.55621 0.92791-0.86139 0.74402-16.807-0.40714-35.306-0.47916-7.7-0.87385-14.675-0.87707-15.5s-0.27053-6.675-0.594-13c-1.2828-25.084-1.568-30.991-2.1-43.5-0.3041-7.15-0.74775-14.8-0.98589-17s-0.7292-12.55-1.0913-23-0.85831-19.342-1.1028-19.759c-1.2286-2.0979 0.90025-4.5418 3.9703-4.5578 3.2938-0.01715 11.214-0.91097 11.214-1.2655 0-0.10862 1.5997-0.293 3.5549-0.40971s5.1738-0.51593 7.1524-0.88713l3.5976-0.67491 0.57807 4.777c0.31794 2.6274 0.8226 8.827 1.1215 13.777s0.75188 12.375 1.0067 16.5c0.42192 6.8299 1.6903 28.382 3.0308 51.5 0.28704 4.95 0.71175 11.925 0.94381 15.5s0.68993 11 1.0175 16.5 0.78169 12.925 1.0092 16.5 0.68006 12.125 1.0057 19 0.8274 13.735 1.115 15.243c0.30593 1.6051-0.02813 3.2864-0.80512 4.052-1.4697 1.4482-29.251 5.1793-30.913 4.1518-0.66474-0.41083-0.9181 1.2225-0.7201 4.6421 0.27813 4.8033 0.55185 5.3414 3.0555 6.0068 2.538 0.67457 2.75 0.5063 2.75-2.1826 0-3.5734 1.5312-3.7114 4.5876-0.41352 2.731 2.9468 6.6276 3.2371 11.413 0.85005 3.0232-1.5082 3.4076-1.5129 4.4739-0.05466 1.0048 1.3742 4.5894 1.6281 25.861 1.8319 13.582 0.13015 24.125 0.59785 23.43 1.0393-0.85322 0.5416-0.53267 0.8077 0.98542 0.81803 1.3401 0.00912 2.25-0.59126 2.25-1.4847 0-2.0059 1.2239-1.8905 5.2707 0.49722l3.385 1.9972-0.95411-5.9245c-0.87888-5.4573-1.1216-5.8638-3.0779-5.1552-1.1681 0.42308-6.1738 0.84792-11.124 0.9441s-10.826 0.43038-13.057 0.74267c-2.7616 0.38648-4.4125 0.1398-5.1696-0.77248-0.65809-0.79295-1.7614-12.364-2.7017-28.335-0.87417-14.847-2.238-36.894-3.0308-48.994s-1.9623-30.55-2.5989-41-1.7096-26.875-2.3842-36.5-0.88332-17.895-0.46371-18.378 0.24396-1.7094-0.39035-2.725c-0.74779-1.1974-0.81049-2.1799-0.17833-2.7944 0.91527-0.88973 12.944-2.2647 32.475-3.712 4.675-0.34643 12.55-0.98368 17.5-1.4161 15.33-1.3392 20.481-1.1867 21.177 0.62683 0.33788 0.88051-0.01374 1.9986-0.78138 2.4847-0.81019 0.513-0.91895 0.89018-0.25926 0.89907 0.62505 0.00842 1.4137 1.9278 1.7526 4.2653 0.62682 4.3239 5.2692 55.174 8.1024 88.75 0.85859 10.175 1.7726 20.75 2.0311 23.5 0.84918 9.0335 2.4029 26.86 3.0071 34.5 0.3262 4.125 0.9904 10.875 1.476 15 1.0626 9.0253 0.2925 10.241-6.72 10.608-23.121 1.2098-25.078 1.4943-25.679 3.732-0.90272 3.3651-0.70818 6.6601 0.39322 6.6601 0.55 0 1 1.35 1 3s-0.45 3-1 3-1 0.68614-1 1.5248-1.0778 1.9345-2.3951 2.4354-2.5958 1.5022-2.8412 2.2252c-0.5707 1.6819 2.396 7.7576 3.8038 7.79 0.58713 0.01353 1.4871 2.3871 2 5.2746 0.92602 5.2136 0.96513 5.2581 5.6327 6.4102 2.5851 0.63811 9.3351 1.4051 15 1.7044 12.175 0.64321 10.332 0.31069 12.228 2.2069 3.1767 3.1766 1.8269 3.6333-9.1786 3.105l-10.75-0.51598 9.6766 1.1698c5.3221 0.64336 9.9178 1.4154 10.213 1.7158s0.7859 3.4503 1.0913 7 0.7674 8.254 1.0268 10.454 0.7127 7.375 1.0076 11.5 0.7404 9.075 0.9902 11 0.7028 7.1 1.007 11.5 0.7632 9.575 1.0202 11.5 0.9198 9.35 1.4731 16.5 1.1913 15.025 1.418 17.5 0.6932 8.325 1.0367 13 1.0548 13.45 1.5807 19.5 1.1795 13.7 1.4524 17c1.9565 23.658 2.5502 31.082 3.1254 39.082 0.6303 8.7676 0.7493 9.1184 3.435 10.132 1.9669 0.7424 3.0992 0.73302 3.8642-0.03202 0.7762-0.77617 1.0822-0.48233 1.0822 1.0393 0 1.9155-0.4611 2.0859-4.75 1.7557-2.6125-0.20117-11.612-0.38963-20-0.4188-15.135-0.05264-15.25-0.06998-15.258-2.3057-0.00899-2.551-2.4071-35.146-3.9179-53.253-0.55071-6.6-1.248-15.825-1.5496-20.5-0.9567-14.831-2.5819-36.382-2.9976-39.75-0.40064-3.2456 0.34017-3.8289 4.2231-3.3246 0.6875 0.08928 1.25-0.34316 1.25-0.96097 0-0.72786-1.0561-0.89133-3-0.46438-2.9976 0.65838-3.0001 0.655-3.1362-4.1705-0.07492-2.6562-0.27679-6.4325-0.44858-8.3917s-1.2312-16.134-2.3544-31.5-2.2988-29.85-2.6127-32.188l-0.5707-4.25 4.8113-0.16004c3.9233-0.1305 4.1653-0.22989 1.3113-0.53853-1.925-0.20818-4.175-0.63343-5-0.94501-0.825-0.31157-8.25-0.69134-16.5-0.84392l-15-0.27743 9.5 1.1325 9.5 1.1325 0.67994 6c0.37396 3.3 0.94819 9.825 1.276 14.5 7.9986 114.05 8.4449 120.58 11.215 164 0.36839 5.775 0.70566 11.625 0.74948 13 0.07797 2.446-0.09638 2.5062-8.0666 2.7888-7.5329 0.26702-8.1076 0.43642-7.6334 2.25 0.44275 1.6931-0.00438 1.9612-3.2704 1.9612-4.2342 0-4.2798-0.87096-0.06379-1.2199 2.3514-0.19461 2.5045-0.38687 1.1165-1.4018-1.239-0.906-1.3093-1.2962-0.30566-1.6983 0.71665-0.28713-1.622-0.55069-5.197-0.58569-4.3159-0.04225-6.012 0.24506-5.0478 0.85507 0.79874 0.50529 1.8877 0.64958 2.4199 0.32064 0.56343-0.34822 0.6926 0.1188 0.3092 1.1179-0.39113 1.0193-0.25712 1.4679 0.33006 1.105 0.5437-0.33602 0.98855-0.1344 0.98855 0.44806 0 1.2929-3.7697 1.1809-6.5-0.19301zm-524-12.748c0.84296-1.3639 4.8366-1.2634 6.2576 0.15762 1.9974 1.9974 4.0684-0.86563 4.6858-6.4776 0.31343-2.849 0.79203-8.105 1.0636-11.68s0.71035-8.3 0.97518-10.5c0.54758-4.549 1.2301-11.824 2.064-22 0.31551-3.85 0.75619-8.8 0.9793-11s0.68716-6.925 1.0312-10.5 0.75082-7.625 0.90392-9 0.57978-6.1 0.9482-10.5 0.89788-9.1692 1.1766-10.598 0.69425-5.704 0.92342-9.5 0.64277-8.7019 0.91908-10.902 0.75312-6.475 1.0596-9.5 0.73777-6.85 0.95846-8.5 0.6836-6.15 1.0287-10 1.0338-10.6 1.5304-15 1.161-11.375 1.4762-15.5c0.85728-11.217 1.5686-14.985 2.8565-15.134 0.63915-0.07372 4.7621-0.10399 9.1621-0.06728l8 0.06674-5.5-0.89702c-4.71-0.76817-11.591-1.097-19.5-0.93198-1.1 0.02296-8.7405 0.04142-16.979 0.04103s-16.001 0.25581-17.25 0.56932c-1.8082 0.45383-2.2712 0.15226-2.2712-1.4794 0-1.1272 0.54561-2.3866 1.2125-2.7987s6.6256-0.68241 13.242-0.60062c7.034 0.08697 11.453-0.20735 10.642-0.70875-0.79095-0.48884-1.1128-1.573-0.74876-2.5218 0.72744-1.8957 2.6528-1.1543 2.6528 1.0215 0 2.0736 5.6111 1.8968 6.4166-0.20215 0.34679-0.90372 0.50743-1.6912 0.35699-1.75-2.334-0.91188-4.5168-2.7763-5.5088-4.705-1.1757-2.2861-1.236-2.2993-1.25-0.27428-0.00811 1.1702-0.61657 2.627-1.3521 3.2375-1.2197 1.0122-12.36 1.4461-30.341 1.1817l-6.1782-0.09085 1.6257 4.272c0.89416 2.3496 2.4368 5.3452 3.4282 6.6569s1.8025 3.1691 1.8025 4.1276c0 1.9807 2.3472 4.307 3.342 3.3122 0.36189-0.3619 0.65799-2.1147 0.65799-3.8951v-3.2371l10.25-0.67786c5.6375-0.37283 12.725-0.52863 15.75-0.34623 5.1682 0.31162 5.4893 0.48246 5.3225 2.8316-0.17726 2.4962-1.1705 11.271-1.811 16-0.18624 1.375-0.63558 5.425-0.99853 9s-0.81248 7.625-0.99895 9-0.59097 4.975-0.89888 8-0.80486 7.75-1.1043 10.5-0.76722 7.25-1.0394 10-1.8193 17.375-3.438 32.5-3.2326 31.775-3.5864 37c-0.35381 5.225-0.81279 9.7762-1.02 10.114-0.44709 0.72848-2.0823 15.312-2.9026 25.886-0.32 4.125-0.79144 9.525-1.0477 12-1.3576 13.114-1.426 15-0.54429 15 0.52221 0 1.2276-0.45 1.5675-1zm-90.402-5.2725c0.40466-1.5131 1.2277-6.9083 1.8291-11.989s1.5339-12.388 2.0724-16.238c1.4568-10.415 5.7582-43.12 6.576-50 0.39227-3.3 0.82383-6.9 0.95902-8s1.3942-9.65 2.7977-19 2.8009-20.15 3.1053-24 1.0136-9.925 1.5761-13.5 1.6705-11.675 2.4622-18 1.706-13.525 2.0316-16c0.32562-2.475 0.90726-6.975 1.2925-10l0.70048-5.5 11.25-0.28275c6.1875-0.15551 11.25-0.60983 11.25-1.0096 0-0.53853-30.849-0.80062-34-0.28886-0.275 0.04466-0.50741 3.1187-0.51647 6.8312s-0.61636 10.575-1.3495 15.25-1.4642 9.625-1.6244 11c-0.74066 6.3559-2.5629 18.602-2.9723 19.975-0.4447 1.4913-2.3328 14.991-5.0384 36.025-1.3881 10.791-2.9025 21.958-4.4076 32.5-0.47113 3.3-0.68228 6.298-0.46923 6.6622s-0.25055 3.7392-1.0302 7.5c-1.5759 7.6013-5.9491 38.498-7.9741 56.338l-0.51081 4.5 5.6275-0.01071c5.2909-0.01006 5.6715-0.17524 6.3632-2.7618zm502.3-229.87c-0.46866-0.74674-0.91282-5.8577-0.98701-11.358-0.1899-14.076-1.3567-53.263-1.9057-64-0.25308-4.95-0.6834-15.975-0.95627-24.5s-0.79532-24.275-1.161-35c-0.36567-10.725-0.71532-23.55-0.77701-28.5l-0.11215-9 3-0.1318c5.6359-0.24759 15.995-1.4982 20.315-2.4526 2.3733-0.52428 4.6776-0.72916 5.1207-0.45529s1.105 6.9198 1.4708 14.769 0.87704 18.096 1.1361 22.771 0.91753 19.525 1.4633 33 1.2253 29.675 1.51 36c2.9579 65.716 2.9574 65.68 0.8632 66.761-1.0335 0.53344-6.1541 1.2741-11.379 1.6459-5.225 0.37179-11.131 0.93074-13.124 1.2421-2.4767 0.38685-3.8942 0.13618-4.4765-0.79162zm-6.2118-175.61c0.27035-1.417 2.8056-2.1692 13.323-3.953 7.1442-1.2116 14.045-1.9798 15.335-1.7069s2.897 0.03847 3.5709-0.5208 2.5433-1.0103 4.1544-1.0024 9.2291-0.84317 16.929-1.8914c14.415-1.9624 16.5-1.9153 16.5 0.37249 0 2.0326-0.5256 2.156-15 3.5215-10.343 0.9757-14.117 1.7256-16.137 3.2064-2.056 1.5071-3.3775 1.7578-6 1.138-1.8498-0.43716-3.5882-0.75283-3.8632-0.70149s-3.5891 0.38349-7.3646 0.73812-9.1245 1.0734-11.886 1.5972c-7.657 1.4521-9.9543 1.2605-9.5617-0.79762z" stroke="#000"/>
</svg>
